<?xml version="1.0" encoding="UTF-8" standalone="no"?>
<!DOCTYPE svg PUBLIC "-//W3C//DTD SVG 1.1//EN"
 "http://www.w3.org/Graphics/SVG/1.1/DTD/svg11.dtd">
<!-- Generated by graphviz version 2.40.1 (20161225.0304)
 -->
<!-- Pages: 1 -->
<svg width="349pt" height="643pt"
 viewBox="0.00 0.00 348.73 642.83" xmlns="http://www.w3.org/2000/svg" xmlns:xlink="http://www.w3.org/1999/xlink">
<g id="graph0" class="graph" transform="scale(1 1) rotate(0) translate(4 638.8313)">
<polygon fill="#ffffff" stroke="transparent" points="-4,4 -4,-638.8313 344.7262,-638.8313 344.7262,4 -4,4"/>
<g id="clust3" class="cluster">
<title>cluster_listener_https http cnx mgr</title>
<polygon fill="#d3d3d3" stroke="#000000" points="8,-272.4313 8,-460.2313 264,-460.2313 264,-272.4313 8,-272.4313"/>
<text text-anchor="middle" x="128.3619" y="-443.6313" font-family="Times,serif" font-size="14.00" fill="#000000">http_connection_manager:listener_https</text>
</g>
<g id="clust2" class="cluster">
<title>cluster_listeners</title>
<polygon fill="#d3d3d3" stroke="#000000" points="28,-479.2313 28,-556.0313 244,-556.0313 244,-479.2313 28,-479.2313"/>
<text text-anchor="middle" x="61.6564" y="-539.4313" font-family="Times,serif" font-size="14.00" fill="#000000">Listeners</text>
</g>
<g id="clust1" class="cluster">
<title>cluster_clusters</title>
<polygon fill="#d3d3d3" stroke="#000000" points="39,-65 39,-164.6313 169,-164.6313 169,-65 39,-65"/>
<text text-anchor="middle" x="69.9411" y="-148.0313" font-family="Times,serif" font-size="14.00" fill="#000000">Clusters</text>
</g>
<!-- Downstream -->
<g id="node1" class="node">
<title>Downstream</title>
<ellipse fill="none" stroke="#000000" cx="136" cy="-616.8313" rx="60.2518" ry="18"/>
<text text-anchor="middle" x="136" y="-612.6313" font-family="Times,serif" font-size="14.00" fill="#000000">Downstream</text>
</g>
<!-- Listener: listener_https -->
<g id="node4" class="node">
<title>Listener: listener_https</title>
<ellipse fill="none" stroke="#000000" cx="136" cy="-505.2313" rx="99.6105" ry="18"/>
<text text-anchor="middle" x="136" y="-501.0313" font-family="Times,serif" font-size="14.00" fill="#000000">Listener: listener_https</text>
</g>
<!-- Downstream&#45;&gt;Listener: listener_https -->
<g id="edge2" class="edge">
<title>Downstream&#45;&gt;Listener: listener_https</title>
<path fill="none" stroke="#000000" d="M136,-598.4028C136,-580.7703 136,-553.9237 136,-533.5704"/>
<polygon fill="#000000" stroke="#000000" points="139.5001,-533.3168 136,-523.3168 132.5001,-533.3169 139.5001,-533.3168"/>
<text text-anchor="middle" x="174.6953" y="-568.2313" font-family="Times,serif" font-size="14.00" fill="#000000">0.0.0.0:10000</text>
</g>
<!-- Cluster: service_foo -->
<g id="node2" class="node">
<title>Cluster: service_foo</title>
<ellipse fill="none" stroke="#000000" cx="104" cy="-102.4156" rx="57.4758" ry="29.3315"/>
<text text-anchor="middle" x="104" y="-106.6156" font-family="Times,serif" font-size="14.00" fill="#000000">service_foo</text>
<text text-anchor="middle" x="104" y="-89.8156" font-family="Times,serif" font-size="14.00" fill="#000000"> STATIC</text>
</g>
<!-- 127.0.0.1:10002 -->
<g id="node3" class="node">
<title>127.0.0.1:10002</title>
<ellipse fill="none" stroke="#000000" cx="104" cy="-18" rx="74.1522" ry="18"/>
<text text-anchor="middle" x="104" y="-13.8" font-family="Times,serif" font-size="14.00" fill="#000000">127.0.0.1:10002</text>
</g>
<!-- Cluster: service_foo&#45;&gt;127.0.0.1:10002 -->
<g id="edge1" class="edge">
<title>Cluster: service_foo&#45;&gt;127.0.0.1:10002</title>
<path fill="none" stroke="#000000" d="M104,-72.8911C104,-64.3331 104,-55.008 104,-46.5131"/>
<polygon fill="#000000" stroke="#000000" points="107.5001,-46.3169 104,-36.3169 100.5001,-46.317 107.5001,-46.3169"/>
</g>
<!-- listener_https http cnx mngr -->
<g id="node5" class="node">
<title>listener_https http cnx mngr</title>
<ellipse fill="none" stroke="#000000" cx="136" cy="-409.4313" rx="119.8255" ry="18"/>
<text text-anchor="middle" x="136" y="-405.2313" font-family="Times,serif" font-size="14.00" fill="#000000">listener_https http cnx mngr</text>
</g>
<!-- Listener: listener_https&#45;&gt;listener_https http cnx mngr -->
<g id="edge3" class="edge">
<title>Listener: listener_https&#45;&gt;listener_https http cnx mngr</title>
<path fill="none" stroke="#000000" d="M136,-487.212C136,-473.384 136,-454.0242 136,-438.079"/>
<polygon fill="#000000" stroke="#000000" points="139.5001,-437.6954 136,-427.6954 132.5001,-437.6955 139.5001,-437.6954"/>
</g>
<!-- listener_httpsenvoy.filters.http.router -->
<g id="node6" class="node">
<title>listener_httpsenvoy.filters.http.router</title>
<ellipse fill="none" stroke="#000000" cx="136" cy="-298.4313" rx="102.4678" ry="18"/>
<text text-anchor="middle" x="136" y="-294.2313" font-family="Times,serif" font-size="14.00" fill="#000000">envoy.filters.http.router</text>
</g>
<!-- listener_https http cnx mngr&#45;&gt;listener_httpsenvoy.filters.http.router -->
<g id="edge4" class="edge">
<title>listener_https http cnx mngr&#45;&gt;listener_httpsenvoy.filters.http.router</title>
<path fill="none" stroke="#000000" d="M136,-391.1019C136,-373.6686 136,-347.1795 136,-326.9802"/>
<polygon fill="#000000" stroke="#000000" points="139.5001,-326.7879 136,-316.7879 132.5001,-326.7879 139.5001,-326.7879"/>
</g>
<!-- Route: local_route -->
<g id="node7" class="node">
<title>Route: local_route</title>
<ellipse fill="none" stroke="#000000" cx="136" cy="-225.4313" rx="82.7838" ry="18"/>
<text text-anchor="middle" x="136" y="-221.2313" font-family="Times,serif" font-size="14.00" fill="#000000">Route: local_route</text>
</g>
<!-- listener_httpsenvoy.filters.http.router&#45;&gt;Route: local_route -->
<g id="edge5" class="edge">
<title>listener_httpsenvoy.filters.http.router&#45;&gt;Route: local_route</title>
<path fill="none" stroke="#000000" d="M136,-280.3863C136,-272.3141 136,-262.6077 136,-253.613"/>
<polygon fill="#000000" stroke="#000000" points="139.5001,-253.5216 136,-243.5216 132.5001,-253.5217 139.5001,-253.5216"/>
</g>
<!-- Route: local_route&#45;&gt;Cluster: service_foo -->
<g id="edge6" class="edge">
<title>Route: local_route&#45;&gt;Cluster: service_foo</title>
<path fill="none" stroke="#000000" d="M131.2783,-207.2799C126.7855,-190.0086 119.8788,-163.4576 114.1395,-141.3942"/>
<polygon fill="#000000" stroke="#000000" points="117.5024,-140.419 111.5975,-131.6222 110.7278,-142.1813 117.5024,-140.419"/>
<text text-anchor="middle" x="173.9196" y="-176.8313" font-family="Times,serif" font-size="14.00" fill="#000000">prefix:&quot;/content&quot;</text>
</g>
<!-- DirectResponse: status:403 body:{inline_string:&quot;denied\n&quot;} -->
<g id="node8" class="node">
<title>DirectResponse: status:403 body:{inline_string:&quot;denied\n&quot;}</title>
<polygon fill="none" stroke="#000000" points="179.2738,-77.6156 179.2738,-127.2156 340.7262,-127.2156 340.7262,-77.6156 179.2738,-77.6156"/>
<text text-anchor="middle" x="233.3401" y="-98.2156" font-family="Times,serif" font-size="14.00" fill="#000000">Direct Response</text>
<polyline fill="none" stroke="#000000" points="287.4064,-77.6156 287.4064,-127.2156 "/>
<text text-anchor="middle" x="314.0663" y="-110.6156" font-family="Times,serif" font-size="14.00" fill="#000000">403</text>
<polyline fill="none" stroke="#000000" points="287.4064,-102.4156 340.7262,-102.4156 "/>
<text text-anchor="middle" x="314.0663" y="-85.8156" font-family="Times,serif" font-size="14.00" fill="#000000">denied</text>
</g>
<!-- Route: local_route&#45;&gt;DirectResponse: status:403 body:{inline_string:&quot;denied\n&quot;} -->
<g id="edge7" class="edge">
<title>Route: local_route&#45;&gt;DirectResponse: status:403 body:{inline_string:&quot;denied\n&quot;}</title>
<path fill="none" stroke="#000000" d="M190.0746,-211.553C202.744,-206.2751 215.3451,-199.105 225,-189.4313 239.0387,-175.3652 247.6466,-154.9335 252.8112,-137.4029"/>
<polygon fill="#000000" stroke="#000000" points="256.2608,-138.0515 255.4691,-127.4863 249.4994,-136.2392 256.2608,-138.0515"/>
<text text-anchor="middle" x="263.3144" y="-176.8313" font-family="Times,serif" font-size="14.00" fill="#000000">prefix:&quot;/&quot;</text>
</g>
</g>
</svg>

