<?xml version="1.0" encoding="UTF-8" standalone="no"?>
<!DOCTYPE svg PUBLIC "-//W3C//DTD SVG 1.1//EN"
 "http://www.w3.org/Graphics/SVG/1.1/DTD/svg11.dtd">
<!-- Generated by graphviz version 2.40.1 (20161225.0304)
 -->
<!-- Pages: 1 -->
<svg width="313pt" height="754pt"
 viewBox="0.00 0.00 313.00 753.83" xmlns="http://www.w3.org/2000/svg" xmlns:xlink="http://www.w3.org/1999/xlink">
<g id="graph0" class="graph" transform="scale(1 1) rotate(0) translate(4 749.8313)">
<polygon fill="#ffffff" stroke="transparent" points="-4,4 -4,-749.8313 309,-749.8313 309,4 -4,4"/>
<g id="clust3" class="cluster">
<title>cluster_listener_0 http cnx mgr</title>
<polygon fill="#d3d3d3" stroke="#000000" points="8,-272.4313 8,-571.2313 258,-571.2313 258,-272.4313 8,-272.4313"/>
<text text-anchor="middle" x="118.249" y="-554.6313" font-family="Times,serif" font-size="14.00" fill="#000000">http_connection_manager:listener_0</text>
</g>
<g id="clust2" class="cluster">
<title>cluster_listeners</title>
<polygon fill="#d3d3d3" stroke="#000000" points="39,-590.2313 39,-667.0313 227,-667.0313 227,-590.2313 39,-590.2313"/>
<text text-anchor="middle" x="72.6564" y="-650.4313" font-family="Times,serif" font-size="14.00" fill="#000000">Listeners</text>
</g>
<g id="clust1" class="cluster">
<title>cluster_clusters</title>
<polygon fill="#d3d3d3" stroke="#000000" points="151,-65 151,-164.6313 297,-164.6313 297,-65 151,-65"/>
<text text-anchor="middle" x="181.9411" y="-148.0313" font-family="Times,serif" font-size="14.00" fill="#000000">Clusters</text>
</g>
<!-- Downstream -->
<g id="node1" class="node">
<title>Downstream</title>
<ellipse fill="none" stroke="#000000" cx="133" cy="-727.8313" rx="60.2518" ry="18"/>
<text text-anchor="middle" x="133" y="-723.6313" font-family="Times,serif" font-size="14.00" fill="#000000">Downstream</text>
</g>
<!-- Listener: listener_0 -->
<g id="node4" class="node">
<title>Listener: listener_0</title>
<ellipse fill="none" stroke="#000000" cx="133" cy="-616.2313" rx="85.7076" ry="18"/>
<text text-anchor="middle" x="133" y="-612.0313" font-family="Times,serif" font-size="14.00" fill="#000000">Listener: listener_0</text>
</g>
<!-- Downstream&#45;&gt;Listener: listener_0 -->
<g id="edge2" class="edge">
<title>Downstream&#45;&gt;Listener: listener_0</title>
<path fill="none" stroke="#000000" d="M133,-709.4028C133,-691.7703 133,-664.9237 133,-644.5704"/>
<polygon fill="#000000" stroke="#000000" points="136.5001,-644.3168 133,-634.3168 129.5001,-644.3169 136.5001,-644.3168"/>
<text text-anchor="middle" x="178.6953" y="-679.2313" font-family="Times,serif" font-size="14.00" fill="#000000">127.0.0.1:10000</text>
</g>
<!-- Cluster: some_service -->
<g id="node2" class="node">
<title>Cluster: some_service</title>
<ellipse fill="none" stroke="#000000" cx="224" cy="-102.4156" rx="65.376" ry="29.3315"/>
<text text-anchor="middle" x="224" y="-106.6156" font-family="Times,serif" font-size="14.00" fill="#000000">some_service</text>
<text text-anchor="middle" x="224" y="-89.8156" font-family="Times,serif" font-size="14.00" fill="#000000"> STATIC</text>
</g>
<!-- 127.0.0.1:1234 -->
<g id="node3" class="node">
<title>127.0.0.1:1234</title>
<ellipse fill="none" stroke="#000000" cx="224" cy="-18" rx="69.4961" ry="18"/>
<text text-anchor="middle" x="224" y="-13.8" font-family="Times,serif" font-size="14.00" fill="#000000">127.0.0.1:1234</text>
</g>
<!-- Cluster: some_service&#45;&gt;127.0.0.1:1234 -->
<g id="edge1" class="edge">
<title>Cluster: some_service&#45;&gt;127.0.0.1:1234</title>
<path fill="none" stroke="#000000" d="M224,-72.8911C224,-64.3331 224,-55.008 224,-46.5131"/>
<polygon fill="#000000" stroke="#000000" points="227.5001,-46.3169 224,-36.3169 220.5001,-46.317 227.5001,-46.3169"/>
</g>
<!-- listener_0 http cnx mngr -->
<g id="node5" class="node">
<title>listener_0 http cnx mngr</title>
<ellipse fill="none" stroke="#000000" cx="133" cy="-520.4313" rx="105.9229" ry="18"/>
<text text-anchor="middle" x="133" y="-516.2313" font-family="Times,serif" font-size="14.00" fill="#000000">listener_0 http cnx mngr</text>
</g>
<!-- Listener: listener_0&#45;&gt;listener_0 http cnx mngr -->
<g id="edge3" class="edge">
<title>Listener: listener_0&#45;&gt;listener_0 http cnx mngr</title>
<path fill="none" stroke="#000000" d="M133,-598.212C133,-584.384 133,-565.0242 133,-549.079"/>
<polygon fill="#000000" stroke="#000000" points="136.5001,-548.6954 133,-538.6954 129.5001,-548.6955 136.5001,-548.6954"/>
</g>
<!-- listener_0envoy.filters.http.ext_authz -->
<g id="node6" class="node">
<title>listener_0envoy.filters.http.ext_authz</title>
<ellipse fill="none" stroke="#000000" cx="133" cy="-409.4313" rx="116.9367" ry="18"/>
<text text-anchor="middle" x="133" y="-405.2313" font-family="Times,serif" font-size="14.00" fill="#000000">envoy.filters.http.ext_authz</text>
</g>
<!-- listener_0 http cnx mngr&#45;&gt;listener_0envoy.filters.http.ext_authz -->
<g id="edge4" class="edge">
<title>listener_0 http cnx mngr&#45;&gt;listener_0envoy.filters.http.ext_authz</title>
<path fill="none" stroke="#000000" d="M133,-502.1019C133,-484.6686 133,-458.1795 133,-437.9802"/>
<polygon fill="#000000" stroke="#000000" points="136.5001,-437.7879 133,-427.7879 129.5001,-437.7879 136.5001,-437.7879"/>
</g>
<!-- listener_0envoy.filters.http.ext_authz&#45;&gt;Cluster: some_service -->
<g id="edge5" class="edge">
<title>listener_0envoy.filters.http.ext_authz&#45;&gt;Cluster: some_service</title>
<path fill="none" stroke="#000000" d="M195.7153,-394.1536C228.9587,-384.1614 263,-370.0051 263,-353.9313 263,-353.9313 263,-353.9313 263,-225.4313 263,-196.091 252.7943,-164.5776 242.8244,-140.7922"/>
<polygon fill="#000000" stroke="#000000" points="245.9471,-139.1967 238.7442,-131.4269 239.5297,-141.9926 245.9471,-139.1967"/>
<text text-anchor="middle" x="276.9979" y="-294.2313" font-family="Times,serif" font-size="14.00" fill="#000000">/auth</text>
</g>
<!-- listener_0envoy.filters.http.router -->
<g id="node7" class="node">
<title>listener_0envoy.filters.http.router</title>
<ellipse fill="none" stroke="#000000" cx="125" cy="-298.4313" rx="102.4678" ry="18"/>
<text text-anchor="middle" x="125" y="-294.2313" font-family="Times,serif" font-size="14.00" fill="#000000">envoy.filters.http.router</text>
</g>
<!-- listener_0envoy.filters.http.ext_authz&#45;&gt;listener_0envoy.filters.http.router -->
<g id="edge6" class="edge">
<title>listener_0envoy.filters.http.ext_authz&#45;&gt;listener_0envoy.filters.http.router</title>
<path fill="none" stroke="#000000" d="M131.679,-391.1019C130.4225,-373.6686 128.5134,-347.1795 127.0576,-326.9802"/>
<polygon fill="#000000" stroke="#000000" points="130.5329,-326.5104 126.323,-316.7879 123.551,-327.0137 130.5329,-326.5104"/>
</g>
<!-- Route: local_route -->
<g id="node8" class="node">
<title>Route: local_route</title>
<ellipse fill="none" stroke="#000000" cx="145" cy="-225.4313" rx="82.7838" ry="18"/>
<text text-anchor="middle" x="145" y="-221.2313" font-family="Times,serif" font-size="14.00" fill="#000000">Route: local_route</text>
</g>
<!-- listener_0envoy.filters.http.router&#45;&gt;Route: local_route -->
<g id="edge7" class="edge">
<title>listener_0envoy.filters.http.router&#45;&gt;Route: local_route</title>
<path fill="none" stroke="#000000" d="M129.9438,-280.3863C132.1794,-272.2264 134.8726,-262.3965 137.3593,-253.32"/>
<polygon fill="#000000" stroke="#000000" points="140.7769,-254.0911 140.0437,-243.5216 134.0257,-252.2414 140.7769,-254.0911"/>
</g>
<!-- Route: local_route&#45;&gt;Cluster: some_service -->
<g id="edge8" class="edge">
<title>Route: local_route&#45;&gt;Cluster: some_service</title>
<path fill="none" stroke="#000000" d="M156.4873,-207.5438C167.8965,-189.7777 185.7298,-162.0084 200.2033,-139.471"/>
<polygon fill="#000000" stroke="#000000" points="203.3079,-141.1137 205.7665,-130.8081 197.4178,-137.3311 203.3079,-141.1137"/>
<text text-anchor="middle" x="203.3144" y="-176.8313" font-family="Times,serif" font-size="14.00" fill="#000000">prefix:&quot;/&quot;</text>
</g>
</g>
</svg>

