<?xml version="1.0" encoding="UTF-8" standalone="no"?>
<!DOCTYPE svg PUBLIC "-//W3C//DTD SVG 1.1//EN"
 "http://www.w3.org/Graphics/SVG/1.1/DTD/svg11.dtd">
<!-- Generated by graphviz version 2.40.1 (20161225.0304)
 -->
<!-- Pages: 1 -->
<svg width="960pt" height="643pt"
 viewBox="0.00 0.00 960.34 642.83" xmlns="http://www.w3.org/2000/svg" xmlns:xlink="http://www.w3.org/1999/xlink">
<g id="graph0" class="graph" transform="scale(1 1) rotate(0) translate(4 638.8313)">
<polygon fill="#ffffff" stroke="transparent" points="-4,4 -4,-638.8313 956.3359,-638.8313 956.3359,4 -4,4"/>
<g id="clust3" class="cluster">
<title>cluster_ http cnx mgr</title>
<polygon fill="#d3d3d3" stroke="#000000" points="47.0761,-272.4313 47.0761,-460.2313 267.0761,-460.2313 267.0761,-272.4313 47.0761,-272.4313"/>
<text text-anchor="middle" x="129.722" y="-443.6313" font-family="Times,serif" font-size="14.00" fill="#000000">http_connection_manager:</text>
</g>
<g id="clust2" class="cluster">
<title>cluster_listeners</title>
<polygon fill="#d3d3d3" stroke="#000000" points="101.0761,-479.2313 101.0761,-556.0313 213.0761,-556.0313 213.0761,-479.2313 101.0761,-479.2313"/>
<text text-anchor="middle" x="134.7325" y="-539.4313" font-family="Times,serif" font-size="14.00" fill="#000000">Listeners</text>
</g>
<g id="clust1" class="cluster">
<title>cluster_clusters</title>
<polygon fill="#d3d3d3" stroke="#000000" points="76.0761,-65 76.0761,-164.6313 759.0761,-164.6313 759.0761,-65 76.0761,-65"/>
<text text-anchor="middle" x="107.0172" y="-148.0313" font-family="Times,serif" font-size="14.00" fill="#000000">Clusters</text>
</g>
<!-- Downstream -->
<g id="node1" class="node">
<title>Downstream</title>
<ellipse fill="none" stroke="#000000" cx="157.0761" cy="-616.8313" rx="60.2518" ry="18"/>
<text text-anchor="middle" x="157.0761" y="-612.6313" font-family="Times,serif" font-size="14.00" fill="#000000">Downstream</text>
</g>
<!-- Listener:  -->
<g id="node12" class="node">
<title>Listener: </title>
<ellipse fill="none" stroke="#000000" cx="157.0761" cy="-505.2313" rx="47.548" ry="18"/>
<text text-anchor="middle" x="157.0761" y="-501.0313" font-family="Times,serif" font-size="14.00" fill="#000000">Listener: </text>
</g>
<!-- Downstream&#45;&gt;Listener:  -->
<g id="edge6" class="edge">
<title>Downstream&#45;&gt;Listener: </title>
<path fill="none" stroke="#000000" d="M157.0761,-598.4028C157.0761,-580.7703 157.0761,-553.9237 157.0761,-533.5704"/>
<polygon fill="#000000" stroke="#000000" points="160.5762,-533.3168 157.0761,-523.3168 153.5762,-533.3169 160.5762,-533.3168"/>
<text text-anchor="middle" x="195.7714" y="-568.2313" font-family="Times,serif" font-size="14.00" fill="#000000">0.0.0.0:15021</text>
</g>
<!-- Cluster: agent -->
<g id="node2" class="node">
<title>Cluster: agent</title>
<ellipse fill="none" stroke="#000000" cx="132.0761" cy="-102.4156" rx="48.3618" ry="29.3315"/>
<text text-anchor="middle" x="132.0761" y="-106.6156" font-family="Times,serif" font-size="14.00" fill="#000000">agent</text>
<text text-anchor="middle" x="132.0761" y="-89.8156" font-family="Times,serif" font-size="14.00" fill="#000000"> STATIC</text>
</g>
<!-- 127.0.0.1:15020 -->
<g id="node3" class="node">
<title>127.0.0.1:15020</title>
<ellipse fill="none" stroke="#000000" cx="74.0761" cy="-18" rx="74.1522" ry="18"/>
<text text-anchor="middle" x="74.0761" y="-13.8" font-family="Times,serif" font-size="14.00" fill="#000000">127.0.0.1:15020</text>
</g>
<!-- Cluster: agent&#45;&gt;127.0.0.1:15020 -->
<g id="edge1" class="edge">
<title>Cluster: agent&#45;&gt;127.0.0.1:15020</title>
<path fill="none" stroke="#000000" d="M113.4053,-75.2413C106.541,-65.2508 98.7886,-53.9676 91.9922,-44.0759"/>
<polygon fill="#000000" stroke="#000000" points="94.8598,-42.0689 86.3122,-35.8089 89.0904,-46.033 94.8598,-42.0689"/>
</g>
<!-- Cluster: prometheus_stats -->
<g id="node4" class="node">
<title>Cluster: prometheus_stats</title>
<ellipse fill="none" stroke="#000000" cx="278.0761" cy="-102.4156" rx="80.0898" ry="29.3315"/>
<text text-anchor="middle" x="278.0761" y="-106.6156" font-family="Times,serif" font-size="14.00" fill="#000000">prometheus_stats</text>
<text text-anchor="middle" x="278.0761" y="-89.8156" font-family="Times,serif" font-size="14.00" fill="#000000"> STATIC</text>
</g>
<!-- 127.0.0.1:15000 -->
<g id="node5" class="node">
<title>127.0.0.1:15000</title>
<ellipse fill="none" stroke="#000000" cx="240.0761" cy="-18" rx="74.1522" ry="18"/>
<text text-anchor="middle" x="240.0761" y="-13.8" font-family="Times,serif" font-size="14.00" fill="#000000">127.0.0.1:15000</text>
</g>
<!-- Cluster: prometheus_stats&#45;&gt;127.0.0.1:15000 -->
<g id="edge2" class="edge">
<title>Cluster: prometheus_stats&#45;&gt;127.0.0.1:15000</title>
<path fill="none" stroke="#000000" d="M264.9986,-73.3646C260.8994,-64.2583 256.3916,-54.2443 252.3499,-45.2659"/>
<polygon fill="#000000" stroke="#000000" points="255.4851,-43.7039 248.1887,-36.0219 249.102,-46.5773 255.4851,-43.7039"/>
</g>
<!-- Cluster: sds&#45;grpc -->
<g id="node6" class="node">
<title>Cluster: sds&#45;grpc</title>
<ellipse fill="none" stroke="#000000" cx="424.0761" cy="-102.4156" rx="48.3618" ry="29.3315"/>
<text text-anchor="middle" x="424.0761" y="-106.6156" font-family="Times,serif" font-size="14.00" fill="#000000">sds&#45;grpc</text>
<text text-anchor="middle" x="424.0761" y="-89.8156" font-family="Times,serif" font-size="14.00" fill="#000000"> STATIC</text>
</g>
<!-- ./etc/istio/proxy/SDS -->
<g id="node7" class="node">
<title>./etc/istio/proxy/SDS</title>
<ellipse fill="none" stroke="#000000" cx="424.0761" cy="-18" rx="92.1287" ry="18"/>
<text text-anchor="middle" x="424.0761" y="-13.8" font-family="Times,serif" font-size="14.00" fill="#000000">./etc/istio/proxy/SDS</text>
</g>
<!-- Cluster: sds&#45;grpc&#45;&gt;./etc/istio/proxy/SDS -->
<g id="edge3" class="edge">
<title>Cluster: sds&#45;grpc&#45;&gt;./etc/istio/proxy/SDS</title>
<path fill="none" stroke="#000000" d="M424.0761,-72.8911C424.0761,-64.3331 424.0761,-55.008 424.0761,-46.5131"/>
<polygon fill="#000000" stroke="#000000" points="427.5762,-46.3169 424.0761,-36.3169 420.5762,-46.317 427.5762,-46.3169"/>
</g>
<!-- Cluster: xds&#45;grpc -->
<g id="node8" class="node">
<title>Cluster: xds&#45;grpc</title>
<ellipse fill="none" stroke="#000000" cx="539.0761" cy="-102.4156" rx="48.3618" ry="29.3315"/>
<text text-anchor="middle" x="539.0761" y="-106.6156" font-family="Times,serif" font-size="14.00" fill="#000000">xds&#45;grpc</text>
<text text-anchor="middle" x="539.0761" y="-89.8156" font-family="Times,serif" font-size="14.00" fill="#000000"> STATIC</text>
</g>
<!-- ./etc/istio/proxy/XDS -->
<g id="node9" class="node">
<title>./etc/istio/proxy/XDS</title>
<ellipse fill="none" stroke="#000000" cx="628.0761" cy="-18" rx="93.8345" ry="18"/>
<text text-anchor="middle" x="628.0761" y="-13.8" font-family="Times,serif" font-size="14.00" fill="#000000">./etc/istio/proxy/XDS</text>
</g>
<!-- Cluster: xds&#45;grpc&#45;&gt;./etc/istio/proxy/XDS -->
<g id="edge4" class="edge">
<title>Cluster: xds&#45;grpc&#45;&gt;./etc/istio/proxy/XDS</title>
<path fill="none" stroke="#000000" d="M565.2976,-77.5447C576.9066,-66.5337 590.5244,-53.6174 602.1043,-42.634"/>
<polygon fill="#000000" stroke="#000000" points="604.5312,-45.1561 609.3781,-35.7349 599.714,-40.0772 604.5312,-45.1561"/>
</g>
<!-- Cluster: zipkin -->
<g id="node10" class="node">
<title>Cluster: zipkin</title>
<ellipse fill="none" stroke="#000000" cx="678.0761" cy="-102.4156" rx="72.7646" ry="29.3315"/>
<text text-anchor="middle" x="678.0761" y="-106.6156" font-family="Times,serif" font-size="14.00" fill="#000000">zipkin</text>
<text text-anchor="middle" x="678.0761" y="-89.8156" font-family="Times,serif" font-size="14.00" fill="#000000"> STRICT_DNS</text>
</g>
<!-- zipkin.istio&#45;system:9411 -->
<g id="node11" class="node">
<title>zipkin.istio&#45;system:9411</title>
<ellipse fill="none" stroke="#000000" cx="846.0761" cy="-18" rx="106.0201" ry="18"/>
<text text-anchor="middle" x="846.0761" y="-13.8" font-family="Times,serif" font-size="14.00" fill="#000000">zipkin.istio&#45;system:9411</text>
</g>
<!-- Cluster: zipkin&#45;&gt;zipkin.istio&#45;system:9411 -->
<g id="edge5" class="edge">
<title>Cluster: zipkin&#45;&gt;zipkin.istio&#45;system:9411</title>
<path fill="none" stroke="#000000" d="M723.9828,-79.3487C748.6207,-66.9688 778.8055,-51.8017 802.9978,-39.6457"/>
<polygon fill="#000000" stroke="#000000" points="804.5883,-42.7636 811.9523,-35.1463 801.4454,-36.5088 804.5883,-42.7636"/>
</g>
<!--  http cnx mngr -->
<g id="node13" class="node">
<title> http cnx mngr</title>
<ellipse fill="none" stroke="#000000" cx="157.0761" cy="-409.4313" rx="67.7623" ry="18"/>
<text text-anchor="middle" x="157.0761" y="-405.2313" font-family="Times,serif" font-size="14.00" fill="#000000"> http cnx mngr</text>
</g>
<!-- Listener: &#45;&gt; http cnx mngr -->
<g id="edge7" class="edge">
<title>Listener: &#45;&gt; http cnx mngr</title>
<path fill="none" stroke="#000000" d="M157.0761,-487.212C157.0761,-473.384 157.0761,-454.0242 157.0761,-438.079"/>
<polygon fill="#000000" stroke="#000000" points="160.5762,-437.6954 157.0761,-427.6954 153.5762,-437.6955 160.5762,-437.6954"/>
</g>
<!-- envoy.filters.http.router -->
<g id="node14" class="node">
<title>envoy.filters.http.router</title>
<ellipse fill="none" stroke="#000000" cx="157.0761" cy="-298.4313" rx="102.4678" ry="18"/>
<text text-anchor="middle" x="157.0761" y="-294.2313" font-family="Times,serif" font-size="14.00" fill="#000000">envoy.filters.http.router</text>
</g>
<!--  http cnx mngr&#45;&gt;envoy.filters.http.router -->
<g id="edge8" class="edge">
<title> http cnx mngr&#45;&gt;envoy.filters.http.router</title>
<path fill="none" stroke="#000000" d="M157.0761,-391.1019C157.0761,-373.6686 157.0761,-347.1795 157.0761,-326.9802"/>
<polygon fill="#000000" stroke="#000000" points="160.5762,-326.7879 157.0761,-316.7879 153.5762,-326.7879 160.5762,-326.7879"/>
</g>
<!-- Route:  -->
<g id="node15" class="node">
<title>Route: </title>
<ellipse fill="none" stroke="#000000" cx="157.0761" cy="-225.4313" rx="39.405" ry="18"/>
<text text-anchor="middle" x="157.0761" y="-221.2313" font-family="Times,serif" font-size="14.00" fill="#000000">Route: </text>
</g>
<!-- envoy.filters.http.router&#45;&gt;Route:  -->
<g id="edge9" class="edge">
<title>envoy.filters.http.router&#45;&gt;Route: </title>
<path fill="none" stroke="#000000" d="M157.0761,-280.3863C157.0761,-272.3141 157.0761,-262.6077 157.0761,-253.613"/>
<polygon fill="#000000" stroke="#000000" points="160.5762,-253.5216 157.0761,-243.5216 153.5762,-253.5217 160.5762,-253.5216"/>
</g>
<!-- Route: &#45;&gt;Cluster: agent -->
<g id="edge11" class="edge">
<title>Route: &#45;&gt;Cluster: agent</title>
<path fill="none" stroke="#000000" d="M141.6769,-208.7149C137.3779,-203.0152 133.2747,-196.3292 131.0419,-189.4313 126.1652,-174.3659 125.4552,-157.0505 126.3174,-141.8529"/>
<polygon fill="#000000" stroke="#000000" points="129.819,-141.9724 127.1336,-131.7235 122.8416,-141.4101 129.819,-141.9724"/>
<text text-anchor="middle" x="195.0932" y="-176.8313" font-family="Times,serif" font-size="14.00" fill="#000000">prefix:&quot;/healthz/ready&quot;</text>
</g>
<!-- Route: &#45;&gt;Cluster: prometheus_stats -->
<g id="edge10" class="edge">
<title>Route: &#45;&gt;Cluster: prometheus_stats</title>
<path fill="none" stroke="#000000" d="M191.8359,-217.0372C217.6651,-210.1128 249.9413,-199.7785 259.0761,-189.4313 270.4089,-176.5941 275.4924,-158.58 277.6126,-142.2701"/>
<polygon fill="#000000" stroke="#000000" points="281.1393,-142.1592 278.6138,-131.8698 274.1715,-141.4884 281.1393,-142.1592"/>
<text text-anchor="middle" x="343.4361" y="-176.8313" font-family="Times,serif" font-size="14.00" fill="#000000">prefix:&quot;/stats/prometheus&quot;</text>
</g>
</g>
</svg>

