<?xml version="1.0" encoding="UTF-8" standalone="no"?>
<!DOCTYPE svg PUBLIC "-//W3C//DTD SVG 1.1//EN"
 "http://www.w3.org/Graphics/SVG/1.1/DTD/svg11.dtd">
<!-- Generated by graphviz version 2.40.1 (20161225.0304)
 -->
<!-- Pages: 1 -->
<svg width="244pt" height="586pt"
 viewBox="0.00 0.00 244.00 585.83" xmlns="http://www.w3.org/2000/svg" xmlns:xlink="http://www.w3.org/1999/xlink">
<g id="graph0" class="graph" transform="scale(1 1) rotate(0) translate(4 581.8313)">
<polygon fill="#ffffff" stroke="transparent" points="-4,4 -4,-581.8313 240,-581.8313 240,4 -4,4"/>
<g id="clust3" class="cluster">
<title>cluster_ http cnx mgr</title>
<polygon fill="#d3d3d3" stroke="#000000" points="8,-215.4313 8,-403.2313 228,-403.2313 228,-215.4313 8,-215.4313"/>
<text text-anchor="middle" x="90.6459" y="-386.6313" font-family="Times,serif" font-size="14.00" fill="#000000">http_connection_manager:</text>
</g>
<g id="clust2" class="cluster">
<title>cluster_listeners</title>
<polygon fill="#d3d3d3" stroke="#000000" points="62,-422.2313 62,-499.0313 174,-499.0313 174,-422.2313 62,-422.2313"/>
<text text-anchor="middle" x="95.6564" y="-482.4313" font-family="Times,serif" font-size="14.00" fill="#000000">Listeners</text>
</g>
<g id="clust1" class="cluster">
<title>cluster_clusters</title>
<polygon fill="#d3d3d3" stroke="#000000" points="25,-8 25,-107.6313 211,-107.6313 211,-8 25,-8"/>
<text text-anchor="middle" x="55.9411" y="-91.0313" font-family="Times,serif" font-size="14.00" fill="#000000">Clusters</text>
</g>
<!-- Downstream -->
<g id="node1" class="node">
<title>Downstream</title>
<ellipse fill="none" stroke="#000000" cx="118" cy="-559.8313" rx="60.2518" ry="18"/>
<text text-anchor="middle" x="118" y="-555.6313" font-family="Times,serif" font-size="14.00" fill="#000000">Downstream</text>
</g>
<!-- Listener:  -->
<g id="node3" class="node">
<title>Listener: </title>
<ellipse fill="none" stroke="#000000" cx="118" cy="-448.2313" rx="47.548" ry="18"/>
<text text-anchor="middle" x="118" y="-444.0313" font-family="Times,serif" font-size="14.00" fill="#000000">Listener: </text>
</g>
<!-- Downstream&#45;&gt;Listener:  -->
<g id="edge1" class="edge">
<title>Downstream&#45;&gt;Listener: </title>
<path fill="none" stroke="#000000" d="M118,-541.4028C118,-523.7703 118,-496.9237 118,-476.5704"/>
<polygon fill="#000000" stroke="#000000" points="121.5001,-476.3168 118,-466.3168 114.5001,-476.3169 121.5001,-476.3168"/>
<text text-anchor="middle" x="156.6953" y="-511.2313" font-family="Times,serif" font-size="14.00" fill="#000000">0.0.0.0:10000</text>
</g>
<!-- Cluster: cluster1 -->
<g id="node2" class="node">
<title>Cluster: cluster1</title>
<ellipse fill="none" stroke="#000000" cx="118" cy="-45.4156" rx="85.0246" ry="29.3315"/>
<text text-anchor="middle" x="118" y="-49.6156" font-family="Times,serif" font-size="14.00" fill="#000000">cluster1</text>
<text text-anchor="middle" x="118" y="-32.8156" font-family="Times,serif" font-size="14.00" fill="#000000"> ORIGINAL_DST</text>
</g>
<!--  http cnx mngr -->
<g id="node4" class="node">
<title> http cnx mngr</title>
<ellipse fill="none" stroke="#000000" cx="118" cy="-352.4313" rx="67.7623" ry="18"/>
<text text-anchor="middle" x="118" y="-348.2313" font-family="Times,serif" font-size="14.00" fill="#000000"> http cnx mngr</text>
</g>
<!-- Listener: &#45;&gt; http cnx mngr -->
<g id="edge2" class="edge">
<title>Listener: &#45;&gt; http cnx mngr</title>
<path fill="none" stroke="#000000" d="M118,-430.212C118,-416.384 118,-397.0242 118,-381.079"/>
<polygon fill="#000000" stroke="#000000" points="121.5001,-380.6954 118,-370.6954 114.5001,-380.6955 121.5001,-380.6954"/>
</g>
<!-- envoy.filters.http.router -->
<g id="node5" class="node">
<title>envoy.filters.http.router</title>
<ellipse fill="none" stroke="#000000" cx="118" cy="-241.4313" rx="102.4678" ry="18"/>
<text text-anchor="middle" x="118" y="-237.2313" font-family="Times,serif" font-size="14.00" fill="#000000">envoy.filters.http.router</text>
</g>
<!--  http cnx mngr&#45;&gt;envoy.filters.http.router -->
<g id="edge3" class="edge">
<title> http cnx mngr&#45;&gt;envoy.filters.http.router</title>
<path fill="none" stroke="#000000" d="M118,-334.1019C118,-316.6686 118,-290.1795 118,-269.9802"/>
<polygon fill="#000000" stroke="#000000" points="121.5001,-269.7879 118,-259.7879 114.5001,-269.7879 121.5001,-269.7879"/>
</g>
<!-- Route: local_service -->
<g id="node6" class="node">
<title>Route: local_service</title>
<ellipse fill="none" stroke="#000000" cx="118" cy="-168.4313" rx="90.2849" ry="18"/>
<text text-anchor="middle" x="118" y="-164.2313" font-family="Times,serif" font-size="14.00" fill="#000000">Route: local_service</text>
</g>
<!-- envoy.filters.http.router&#45;&gt;Route: local_service -->
<g id="edge4" class="edge">
<title>envoy.filters.http.router&#45;&gt;Route: local_service</title>
<path fill="none" stroke="#000000" d="M118,-223.3863C118,-215.3141 118,-205.6077 118,-196.613"/>
<polygon fill="#000000" stroke="#000000" points="121.5001,-196.5216 118,-186.5216 114.5001,-196.5217 121.5001,-196.5216"/>
</g>
<!-- Route: local_service&#45;&gt;Cluster: cluster1 -->
<g id="edge5" class="edge">
<title>Route: local_service&#45;&gt;Cluster: cluster1</title>
<path fill="none" stroke="#000000" d="M118,-150.2799C118,-133.2018 118,-107.0504 118,-85.1363"/>
<polygon fill="#000000" stroke="#000000" points="121.5001,-85.0962 118,-75.0963 114.5001,-85.0963 121.5001,-85.0962"/>
<text text-anchor="middle" x="144.3144" y="-119.8313" font-family="Times,serif" font-size="14.00" fill="#000000">prefix:&quot;/&quot;</text>
</g>
</g>
</svg>

