<?xml version="1.0" encoding="UTF-8" standalone="no"?>
<!DOCTYPE svg PUBLIC "-//W3C//DTD SVG 1.1//EN"
 "http://www.w3.org/Graphics/SVG/1.1/DTD/svg11.dtd">
<!-- Generated by graphviz version 2.40.1 (20161225.0304)
 -->
<!-- Pages: 1 -->
<svg width="252pt" height="643pt"
 viewBox="0.00 0.00 252.00 642.83" xmlns="http://www.w3.org/2000/svg" xmlns:xlink="http://www.w3.org/1999/xlink">
<g id="graph0" class="graph" transform="scale(1 1) rotate(0) translate(4 638.8313)">
<polygon fill="#ffffff" stroke="transparent" points="-4,4 -4,-638.8313 248,-638.8313 248,4 -4,4"/>
<g id="clust3" class="cluster">
<title>cluster_listener_0 http cnx mgr</title>
<polygon fill="#d3d3d3" stroke="#000000" points="8,-272.4313 8,-460.2313 236,-460.2313 236,-272.4313 8,-272.4313"/>
<text text-anchor="middle" x="118.249" y="-443.6313" font-family="Times,serif" font-size="14.00" fill="#000000">http_connection_manager:listener_0</text>
</g>
<g id="clust2" class="cluster">
<title>cluster_listeners</title>
<polygon fill="#d3d3d3" stroke="#000000" points="28,-479.2313 28,-556.0313 216,-556.0313 216,-479.2313 28,-479.2313"/>
<text text-anchor="middle" x="61.6564" y="-539.4313" font-family="Times,serif" font-size="14.00" fill="#000000">Listeners</text>
</g>
<g id="clust1" class="cluster">
<title>cluster_clusters</title>
<polygon fill="#d3d3d3" stroke="#000000" points="49,-65 49,-164.6313 195,-164.6313 195,-65 49,-65"/>
<text text-anchor="middle" x="79.9411" y="-148.0313" font-family="Times,serif" font-size="14.00" fill="#000000">Clusters</text>
</g>
<!-- Downstream -->
<g id="node1" class="node">
<title>Downstream</title>
<ellipse fill="none" stroke="#000000" cx="122" cy="-616.8313" rx="60.2518" ry="18"/>
<text text-anchor="middle" x="122" y="-612.6313" font-family="Times,serif" font-size="14.00" fill="#000000">Downstream</text>
</g>
<!-- Listener: listener_0 -->
<g id="node4" class="node">
<title>Listener: listener_0</title>
<ellipse fill="none" stroke="#000000" cx="122" cy="-505.2313" rx="85.7076" ry="18"/>
<text text-anchor="middle" x="122" y="-501.0313" font-family="Times,serif" font-size="14.00" fill="#000000">Listener: listener_0</text>
</g>
<!-- Downstream&#45;&gt;Listener: listener_0 -->
<g id="edge2" class="edge">
<title>Downstream&#45;&gt;Listener: listener_0</title>
<path fill="none" stroke="#000000" d="M122,-598.4028C122,-580.7703 122,-553.9237 122,-533.5704"/>
<polygon fill="#000000" stroke="#000000" points="125.5001,-533.3168 122,-523.3168 118.5001,-533.3169 125.5001,-533.3168"/>
<text text-anchor="middle" x="167.6953" y="-568.2313" font-family="Times,serif" font-size="14.00" fill="#000000">127.0.0.1:10000</text>
</g>
<!-- Cluster: some_service -->
<g id="node2" class="node">
<title>Cluster: some_service</title>
<ellipse fill="none" stroke="#000000" cx="122" cy="-102.4156" rx="65.376" ry="29.3315"/>
<text text-anchor="middle" x="122" y="-106.6156" font-family="Times,serif" font-size="14.00" fill="#000000">some_service</text>
<text text-anchor="middle" x="122" y="-89.8156" font-family="Times,serif" font-size="14.00" fill="#000000"> STATIC</text>
</g>
<!-- 127.0.0.1:1234 -->
<g id="node3" class="node">
<title>127.0.0.1:1234</title>
<ellipse fill="none" stroke="#000000" cx="122" cy="-18" rx="69.4961" ry="18"/>
<text text-anchor="middle" x="122" y="-13.8" font-family="Times,serif" font-size="14.00" fill="#000000">127.0.0.1:1234</text>
</g>
<!-- Cluster: some_service&#45;&gt;127.0.0.1:1234 -->
<g id="edge1" class="edge">
<title>Cluster: some_service&#45;&gt;127.0.0.1:1234</title>
<path fill="none" stroke="#000000" d="M122,-72.8911C122,-64.3331 122,-55.008 122,-46.5131"/>
<polygon fill="#000000" stroke="#000000" points="125.5001,-46.3169 122,-36.3169 118.5001,-46.317 125.5001,-46.3169"/>
</g>
<!-- listener_0 http cnx mngr -->
<g id="node5" class="node">
<title>listener_0 http cnx mngr</title>
<ellipse fill="none" stroke="#000000" cx="122" cy="-409.4313" rx="105.9229" ry="18"/>
<text text-anchor="middle" x="122" y="-405.2313" font-family="Times,serif" font-size="14.00" fill="#000000">listener_0 http cnx mngr</text>
</g>
<!-- Listener: listener_0&#45;&gt;listener_0 http cnx mngr -->
<g id="edge3" class="edge">
<title>Listener: listener_0&#45;&gt;listener_0 http cnx mngr</title>
<path fill="none" stroke="#000000" d="M122,-487.212C122,-473.384 122,-454.0242 122,-438.079"/>
<polygon fill="#000000" stroke="#000000" points="125.5001,-437.6954 122,-427.6954 118.5001,-437.6955 125.5001,-437.6954"/>
</g>
<!-- listener_0envoy.filters.http.router -->
<g id="node6" class="node">
<title>listener_0envoy.filters.http.router</title>
<ellipse fill="none" stroke="#000000" cx="122" cy="-298.4313" rx="102.4678" ry="18"/>
<text text-anchor="middle" x="122" y="-294.2313" font-family="Times,serif" font-size="14.00" fill="#000000">envoy.filters.http.router</text>
</g>
<!-- listener_0 http cnx mngr&#45;&gt;listener_0envoy.filters.http.router -->
<g id="edge4" class="edge">
<title>listener_0 http cnx mngr&#45;&gt;listener_0envoy.filters.http.router</title>
<path fill="none" stroke="#000000" d="M122,-391.1019C122,-373.6686 122,-347.1795 122,-326.9802"/>
<polygon fill="#000000" stroke="#000000" points="125.5001,-326.7879 122,-316.7879 118.5001,-326.7879 125.5001,-326.7879"/>
</g>
<!-- Route: local_route -->
<g id="node7" class="node">
<title>Route: local_route</title>
<ellipse fill="none" stroke="#000000" cx="122" cy="-225.4313" rx="82.7838" ry="18"/>
<text text-anchor="middle" x="122" y="-221.2313" font-family="Times,serif" font-size="14.00" fill="#000000">Route: local_route</text>
</g>
<!-- listener_0envoy.filters.http.router&#45;&gt;Route: local_route -->
<g id="edge5" class="edge">
<title>listener_0envoy.filters.http.router&#45;&gt;Route: local_route</title>
<path fill="none" stroke="#000000" d="M122,-280.3863C122,-272.3141 122,-262.6077 122,-253.613"/>
<polygon fill="#000000" stroke="#000000" points="125.5001,-253.5216 122,-243.5216 118.5001,-253.5217 125.5001,-253.5216"/>
</g>
<!-- Route: local_route&#45;&gt;Cluster: some_service -->
<g id="edge6" class="edge">
<title>Route: local_route&#45;&gt;Cluster: some_service</title>
<path fill="none" stroke="#000000" d="M122,-207.2799C122,-190.2018 122,-164.0504 122,-142.1363"/>
<polygon fill="#000000" stroke="#000000" points="125.5001,-142.0962 122,-132.0963 118.5001,-142.0963 125.5001,-142.0962"/>
<text text-anchor="middle" x="148.3144" y="-176.8313" font-family="Times,serif" font-size="14.00" fill="#000000">prefix:&quot;/&quot;</text>
</g>
</g>
</svg>

